<?xml version="1.0" encoding="utf-8"?>
<!-- Generator: Adobe Illustrator 17.0.0, SVG Export Plug-In . SVG Version: 6.00 Build 0)  -->
<!DOCTYPE svg PUBLIC "-//W3C//DTD SVG 1.1//EN" "http://www.w3.org/Graphics/SVG/1.1/DTD/svg11.dtd">
<svg version="1.1" id="Layer_1" xmlns="http://www.w3.org/2000/svg" xmlns:xlink="http://www.w3.org/1999/xlink" x="0px" y="0px"
	 width="612px" height="500px" viewBox="0 0 612 500" enable-background="new 0 0 612 500" xml:space="preserve">
<g>
</g>
<path fill="#F26B3A" stroke="#FFFFFF" stroke-miterlimit="10" d="M278.219,385.128l-31.825-9.234
	c-3.339-0.939-5.217-4.435-4.278-7.774l71.214-245.311c0.939-3.339,4.435-5.217,7.774-4.278l31.825,9.234
	c3.339,0.939,5.217,4.435,4.278,7.774L285.993,380.85C285.002,384.189,281.558,386.119,278.219,385.128z"/>
<path fill="#FFFFFF" stroke="#FFFFFF" stroke-miterlimit="10" d="M218.744,326.592l22.695-24.208c2.4-2.556,2.243-6.626-0.417-8.974
	l-47.268-41.581l47.268-41.581c2.661-2.348,2.869-6.417,0.417-8.974l-22.695-24.208c-2.348-2.504-6.313-2.661-8.869-0.261
	l-75.179,70.432c-2.661,2.452-2.661,6.678,0,9.13l75.179,70.484C212.431,329.252,216.396,329.148,218.744,326.592L218.744,326.592z"
	/>
<path fill="#FFFFFF" stroke="#FFFFFF" stroke-miterlimit="10" d="M389.449,326.905l75.179-70.484c2.661-2.452,2.661-6.678,0-9.13
	l-75.179-70.536c-2.504-2.348-6.469-2.243-8.869,0.261l-22.695,24.208c-2.4,2.556-2.243,6.626,0.417,8.974l47.268,41.633
	l-47.268,41.581c-2.661,2.348-2.869,6.417-0.417,8.974l22.695,24.208C382.928,329.148,386.893,329.252,389.449,326.905
	L389.449,326.905z"/>
<g>
	<path fill="#063038" stroke="#FFFFFF" stroke-miterlimit="10" d="M299.612,491.673C166.857,491.549,58.318,383.445,59.166,249.522
		C60.003,117.407,167.945,9.735,301.43,10.649c132.297,0.906,240.036,109.248,238.721,242.977
		C538.859,385.016,431.705,491.548,299.612,491.673z M117.765,249.553c-0.739,99.608,78.879,182.066,179.521,183.438
		c99.988,1.363,182.891-78.623,184.222-179.537c1.322-100.265-79.089-183.255-180.326-184.165
		C201.397,68.392,118.915,148.509,117.765,249.553z"/>
</g>
</svg>
