<?xml version="1.0" encoding="utf-8"?>
<!-- Generator: Adobe Illustrator 17.0.0, SVG Export Plug-In . SVG Version: 6.00 Build 0)  -->
<!DOCTYPE svg PUBLIC "-//W3C//DTD SVG 1.1//EN" "http://www.w3.org/Graphics/SVG/1.1/DTD/svg11.dtd">
<svg version="1.1" id="Layer_1" xmlns="http://www.w3.org/2000/svg" xmlns:xlink="http://www.w3.org/1999/xlink" x="0px" y="0px"
	 width="612px" height="792px" viewBox="0 0 612 792" enable-background="new 0 0 612 792" xml:space="preserve">
<g>
</g>
<path fill="#F8D3C0" stroke="#FFFFFF" stroke-miterlimit="10" d="M290.346,408.632l-23.234-6.742
	c-2.438-0.686-3.809-3.237-3.123-5.675l51.991-179.091c0.686-2.438,3.238-3.809,5.675-3.123l23.234,6.742
	c2.438,0.686,3.809,3.238,3.123,5.675l-51.991,179.091C295.297,407.946,292.783,409.356,290.346,408.632z M246.925,365.897
	l16.568-17.673c1.752-1.866,1.638-4.837-0.305-6.551l-34.508-30.356l34.508-30.356c1.943-1.714,2.095-4.685,0.305-6.551
	l-16.568-17.673c-1.714-1.828-4.609-1.943-6.475-0.19l-54.885,51.419c-1.943,1.79-1.943,4.875,0,6.665l54.885,51.457
	C242.316,367.84,245.211,367.763,246.925,365.897L246.925,365.897z M371.55,366.126l54.885-51.457c1.943-1.79,1.943-4.875,0-6.665
	l-54.885-51.495c-1.828-1.714-4.723-1.638-6.475,0.19l-16.568,17.673c-1.752,1.866-1.638,4.837,0.305,6.551l34.508,30.394
	l-34.508,30.356c-1.943,1.714-2.095,4.685-0.305,6.551l16.568,17.673C366.789,367.763,369.684,367.84,371.55,366.126L371.55,366.126
	z"/>
<g>
	<path fill="#FFFFFF" d="M305.958,506.927c-111.377-0.105-202.436-90.799-201.725-203.155
		c0.702-110.839,91.262-201.172,203.25-200.405c110.992,0.76,201.381,91.655,200.278,203.848
		C506.677,417.445,416.779,506.821,305.958,506.927z M153.396,303.798c-0.62,83.567,66.176,152.746,150.611,153.897
		c83.886,1.143,153.439-65.962,154.555-150.625c1.109-84.118-66.353-153.744-151.286-154.507
		C223.56,151.811,154.36,219.026,153.396,303.798z"/>
</g>
</svg>
